Coordinates
version=1
nRows=32
nColumns=12
inDegrees=yes

Units are S.I. units (second, meters, Newtons, ...)
Angles are in degrees

endheader
time	SC_y	SC_z	SC_x	AC_y	AC_z	AC_x	GH_y	GH_z	GH_yy	EL_x	PS_y
       0.0              -43.52          34.61          58.29           43.2       -0.01052         -11.81         -60.47          83.41         -30.09          116.3          142.9
  0.006182              -43.52           34.6          58.29           43.2      -0.009977         -11.81         -60.47          83.39         -30.06          116.3          142.9
   0.01236              -43.52           34.6          58.29           43.2      -0.009396         -11.81         -60.47          83.38         -30.02          116.3          142.9
   0.01855              -43.53           34.6          58.29          43.21      -0.008777         -11.81         -60.46          83.36         -29.99          116.3          142.9
   0.02473              -43.53          34.59          58.29          43.21      -0.008119         -11.81         -60.46          83.34         -29.95          116.3          142.9
   0.03091              -43.53          34.59          58.29          43.21      -0.007417         -11.81         -60.46          83.33         -29.91          116.3          142.9
   0.03709              -43.53          34.59          58.29          43.22      -0.006667          -11.8         -60.45          83.31         -29.87          116.3          142.9
   0.04328              -43.53          34.58          58.29          43.22      -0.005865          -11.8         -60.45          83.28         -29.83          116.3          142.8
   0.04946              -43.53          34.58          58.29          43.22      -0.005007          -11.8         -60.44          83.26         -29.78          116.3          142.8
   0.05564              -43.53          34.57          58.29          43.23      -0.004086          -11.8         -60.44          83.24         -29.73          116.3          142.8
   0.06182              -43.54          34.57          58.29          43.23      -0.003097         -11.79         -60.43          83.21         -29.68          116.3          142.8
   0.06801              -43.54          34.56          58.29          43.24      -0.002033         -11.79         -60.43          83.18         -29.62          116.3          142.8
   0.07419              -43.54          34.55           58.3          43.24     -0.0008857         -11.79         -60.42          83.15         -29.55          116.3          142.8
   0.08037              -43.54          34.55           58.3          43.25      0.0003536         -11.78         -60.41          83.12         -29.48          116.3          142.8
   0.08655              -43.55          34.54           58.3          43.26       0.001695         -11.78         -60.41          83.09         -29.41          116.3          142.8
   0.09274              -43.55          34.53           58.3          43.26       0.003149         -11.77          -60.4          83.05         -29.33          116.3          142.8
   0.09892              -43.55          34.52           58.3          43.27        0.00473         -11.77         -60.39          83.01         -29.24          116.3          142.7
    0.1051              -43.55          34.51           58.3          43.28       0.006452         -11.76         -60.38          82.96         -29.15          116.3          142.7
    0.1113              -43.56           34.5           58.3          43.29       0.008333         -11.76         -60.37          82.91         -29.04          116.3          142.7
    0.1175              -43.56          34.49           58.3           43.3        0.01039         -11.75         -60.36          82.86         -28.93          116.3          142.7
    0.1236              -43.57          34.48           58.3          43.31        0.01265         -11.74         -60.35           82.8          -28.8          116.3          142.7
    0.1298              -43.57          34.47           58.3          43.32        0.01514         -11.74         -60.34          82.73         -28.67          116.3          142.7
     0.136              -43.58          34.45           58.3          43.33        0.01789         -11.73         -60.32          82.66         -28.51          116.3          142.6
    0.1422              -43.58          34.44           58.3          43.35        0.02093         -11.72          -60.3          82.58         -28.35          116.3          142.6
    0.1484              -43.59          34.42           58.3          43.36        0.02432         -11.71         -60.29          82.49         -28.16          116.3          142.6
    0.1546              -43.59           34.4           58.3          43.38         0.0281          -11.7         -60.27          82.39         -27.95          116.3          142.5
    0.1607               -43.6          34.37           58.3           43.4        0.03233         -11.68         -60.24          82.28         -27.72          116.3          142.5
    0.1669              -43.61          34.35           58.3          43.42        0.03709         -11.67         -60.22          82.16         -27.45          116.3          142.5
    0.1731              -43.62          34.32           58.3          43.45        0.04246         -11.65         -60.19          82.01         -27.15          116.3          142.4
    0.1793              -43.63          34.29           58.3          43.48        0.04857         -11.64         -60.16          81.85         -26.82          116.3          142.3
    0.1855              -43.64          34.25           58.3          43.51        0.05554         -11.61         -60.12          81.67         -26.43          116.3          142.3
    0.1917              -43.66           34.2           58.3          43.55        0.06354         -11.59         -60.08          81.46         -25.99          116.3          142.2
